<?xml version="1.0" encoding="UTF-8"?>
<!-- Generator: Adobe Illustrator 18.1.1, SVG Export Plug-In . SVG Version: 6.00 Build 0)  -->
<!DOCTYPE svg PUBLIC "-//W3C//DTD SVG 1.1//EN" "http://www.w3.org/Graphics/SVG/1.1/DTD/svg11.dtd">
<svg version="1.1" id="Layer_1" xmlns="http://www.w3.org/2000/svg" xmlns:xlink="http://www.w3.org/1999/xlink" x="0px" y="0px" viewBox="0 0 220 35.7" enable-background="new 0 0 220 35.7" xml:space="preserve">
<g>
	<g>
		<g>
			<path fill="#FFFFFF" d="M16.4,25.2L16.4,25.2c-0.3,0.4-0.6,0.1-0.9,0.2C16.1,25.2,16.4,25.2,16.4,25.2z"/>
			<g>
				<path fill="#4E4E55" d="M36.6,6.6l-0.4-0.9c-0.1-0.1-0.2-0.1-0.2,0c-3.1,6.6-12.7,15-28.4,13.9c-0.8-0.1-1.6-0.1-2.5-0.3      c0,0-0.1,0-0.1,0c-0.2,0-0.3,0-0.5-0.1c-0.2,0-0.5-0.1-0.7-0.1c-0.1,0-0.2,0.1-0.2,0.2l3.2,6.3c0,0,0.1,0.1,0.1,0.1      c0.6,0,1.2,0.1,1.9,0.1c0.3,0,0.7,0,1.3,0.1c0.3,0,0.6,0,0.9,0c0.1,0,0.1,0,0.2,0c0.4,0,0.8,0,1.2,0c0,0,0.1,0,0.1,0      c0.9,0,1.8-0.1,2.7-0.3c0,0,0,0,0.1,0c0.3,0,0.6-0.1,0.9-0.1C26.8,23.5,33.9,15.2,36.6,6.6C36.7,6.6,36.6,6.6,36.6,6.6z"/>
			</g>
			<g>
				<path fill="#54A754" d="M32.7,7c0.1-0.1,0.1-0.2,0-0.3l-3-5.7c-0.3-0.6-0.9-1-1.6-1c-0.1,0-0.2,0-0.3,0l-2.1,0.3l0,0l-24,3.1      l0,0C0.7,3.6,0,4.3,0,5.3c0,0.3,0.1,0.7,0.2,0.9l5.4,10.5c0,0.1,0.1,0.1,0.2,0.1C6.7,17,7.3,17,8.2,17.1      C17.8,17.4,28.9,13,32.7,7z"/>
			</g>
			<g>
				<path fill="#54A754" d="M37.8,16.6L37.8,16.6l-1.6-3.1c-0.1-0.2-0.3-0.2-0.4,0C32.4,20.2,23.6,28.2,14,28.7c-0.7,0-1.4,0-2.1,0      c-0.1,0-0.1,0.1-0.1,0.1l3,5.8l0.1,0.2c0,0,0,0,0,0c0.1,0.1,0.2,0.3,0.3,0.4c0.7,0.7,1.8,0.8,2.6,0.1L37.3,19l0,0      c0,0,0.1-0.1,0.1-0.1C38,18.2,38.1,17.3,37.8,16.6z"/>
			</g>
		</g>
		<g>
			<g>
				<g>
					<g>
						<g>
							<path fill="#4E4E55" d="M70.7,23.3c0,0,0,0.1,0,0.1c-0.3,0.5-0.7,0.9-1.3,1.4c-0.6,0.5-1.2,1-2,1.4c-0.8,0.4-1.6,0.8-2.5,1.1         c-0.9,0.3-1.9,0.4-2.9,0.4c-1.6,0-3-0.3-4.4-0.8c-1.3-0.6-2.5-1.3-3.4-2.3c-1-1-1.7-2.2-2.2-3.5c-0.5-1.3-0.8-2.8-0.8-4.4         c0-1.6,0.3-3,0.8-4.4c0.5-1.4,1.3-2.5,2.2-3.6c1-1,2.1-1.8,3.5-2.4c1.3-0.6,2.8-0.9,4.4-0.9c1,0,2,0.1,2.9,0.3         c0.9,0.2,1.7,0.5,2.4,0.9C68.1,7,68.8,7.5,69.3,8c0.5,0.5,1,1,1.4,1.6c0,0,0,0.1,0,0.1L68,12.2c0,0-0.1,0-0.1,0         c-0.7-0.9-1.4-1.7-2.3-2.3c-0.9-0.6-2-0.9-3.4-0.9c-1,0-2,0.2-2.8,0.6c-0.8,0.4-1.5,1-2.1,1.7c-0.6,0.7-1,1.5-1.3,2.4         c-0.3,0.9-0.5,1.9-0.5,2.9c0,1,0.2,2,0.5,2.9c0.3,0.9,0.7,1.7,1.3,2.3c0.6,0.7,1.3,1.2,2.1,1.6c0.8,0.4,1.7,0.6,2.7,0.6         c0.9,0,1.7-0.1,2.3-0.3c0.6-0.2,1.2-0.5,1.7-0.8c0.5-0.3,0.8-0.7,1.1-1c0.3-0.3,0.6-0.6,0.8-0.9c0,0,0.1,0,0.1,0L70.7,23.3z"/>
						</g>
					</g>
					<g>
						<g>
							<path fill="#4E4E55" d="M73.4,5.9H77C77,5.9,77,6,77,6v7.8c0.4-0.4,0.9-0.8,1.7-1.2c0.7-0.4,1.7-0.6,2.8-0.6         c0.9,0,1.7,0.1,2.5,0.4c0.7,0.3,1.3,0.7,1.8,1.3c0.5,0.5,0.8,1.2,1.1,2c0.3,0.8,0.4,1.6,0.4,2.5v9c0,0,0,0.1-0.1,0.1h-3.6         c0,0-0.1,0-0.1-0.1v-9c0-1-0.3-1.7-0.8-2.2c-0.5-0.5-1.2-0.8-2-0.8c-0.5,0-1,0.1-1.4,0.3c-0.4,0.2-0.8,0.5-1.1,0.8         c-0.3,0.4-0.6,0.8-0.7,1.3c-0.2,0.5-0.3,1-0.3,1.5v8c0,0,0,0.1-0.1,0.1h-3.6c0,0-0.1,0-0.1-0.1L73.4,5.9         C73.4,6,73.4,5.9,73.4,5.9z"/>
						</g>
					</g>
					<g>
						<g>
							<path fill="#4E4E55" d="M99.9,25.8c-0.4,0.5-1,0.9-1.8,1.3c-0.8,0.4-1.8,0.6-2.8,0.6c-0.6,0-1.2-0.1-1.8-0.3         c-0.6-0.2-1.2-0.5-1.7-0.9c-0.5-0.4-0.9-0.9-1.2-1.5c-0.3-0.6-0.5-1.3-0.5-2.2c0-0.8,0.2-1.6,0.5-2.3         c0.3-0.7,0.8-1.2,1.3-1.7c0.6-0.5,1.3-0.8,2.1-1c0.8-0.2,1.7-0.4,2.7-0.4c0.3,0,0.6,0,1,0c0.4,0,0.7,0,1.1,0         c0.4,0,0.8,0,1.2,0.1v-0.4c0-0.7-0.3-1.3-0.9-1.8c-0.6-0.4-1.4-0.6-2.3-0.6c-1.1,0-1.9,0.1-2.5,0.4c-0.6,0.3-1.2,0.5-1.6,0.9         c0,0-0.1,0-0.1,0l-1.6-2.4c0,0,0-0.1,0-0.1c0.3-0.2,0.6-0.4,1-0.6c0.4-0.2,0.8-0.4,1.3-0.6c0.5-0.2,1.1-0.3,1.8-0.4         c0.7-0.1,1.5-0.2,2.3-0.2c1,0,1.8,0.1,2.6,0.4c0.8,0.3,1.4,0.6,2,1.1c0.6,0.5,1,1.1,1.3,1.7c0.3,0.7,0.4,1.4,0.4,2.2v10         c0,0,0,0.1-0.1,0.1h-3.4c0,0-0.1,0-0.1-0.1L99.9,25.8z M99.9,20.4c-0.4,0-0.8,0-1.1-0.1c-0.3,0-0.6,0-0.9,0         c-0.3,0-0.6,0-0.8,0c-1.2,0-2.1,0.2-2.5,0.7c-0.5,0.5-0.7,1-0.7,1.6c0,0.6,0.2,1.1,0.7,1.5c0.5,0.4,1.1,0.5,2,0.5         c0.4,0,0.9-0.1,1.3-0.2c0.4-0.1,0.8-0.4,1.1-0.6c0.3-0.3,0.6-0.6,0.8-0.9c0.2-0.3,0.3-0.7,0.3-1.1V20.4z"/>
						</g>
					</g>
					<g>
						<g>
							<path fill="#4E4E55" d="M120.5,29.7c0,0,0.1,0,0.1,0c0.6,0.4,1.2,0.7,1.9,0.8c0.7,0.2,1.5,0.3,2.4,0.3c1,0,1.8-0.3,2.5-0.9         c0.7-0.6,1-1.4,1-2.5v-1.6c-0.5,0.4-1.1,0.8-1.7,1c-0.6,0.3-1.4,0.4-2.4,0.4c-1.1,0-2-0.2-2.9-0.5c-0.8-0.4-1.6-0.9-2.2-1.5         c-0.6-0.6-1-1.4-1.4-2.3c-0.3-0.9-0.5-1.9-0.5-2.9c0-1.1,0.2-2.1,0.6-3.1c0.4-1,1-1.8,1.7-2.5c0.7-0.7,1.6-1.3,2.7-1.7         c1-0.4,2.2-0.6,3.5-0.6c1.3,0,2.5,0.1,3.6,0.3c1.1,0.2,1.9,0.4,2.6,0.7c0,0,0.1,0,0.1,0.1v14.5c0,1-0.2,2-0.5,2.8         c-0.4,0.8-0.9,1.5-1.5,2c-0.6,0.6-1.4,1-2.3,1.3c-0.9,0.3-1.8,0.4-2.8,0.4c-0.8,0-1.5,0-2.1-0.1c-0.6-0.1-1.1-0.2-1.6-0.3         c-0.5-0.1-0.9-0.3-1.3-0.5c-0.4-0.2-0.7-0.4-1-0.6c0,0,0-0.1,0-0.1L120.5,29.7z M128.3,15.5c-0.3-0.1-0.6-0.2-0.9-0.2         c-0.3-0.1-0.8-0.1-1.5-0.1c-0.8,0-1.4,0.1-2,0.4c-0.6,0.3-1.1,0.6-1.5,1c-0.4,0.4-0.7,0.9-0.9,1.5c-0.2,0.6-0.3,1.2-0.3,1.8         c0,1.1,0.3,2.1,0.9,2.9c0.6,0.8,1.5,1.2,2.8,1.2c1.1,0,2-0.2,2.6-0.7c0.6-0.5,0.9-1.3,0.9-2.3V15.5z"/>
						</g>
					</g>
					<g>
						<g>
							<path fill="#4E4E55" d="M149.7,25c0,0,0,0.1,0,0.1c-0.1,0.1-0.2,0.2-0.5,0.5c-0.3,0.3-0.7,0.6-1.2,0.9         c-0.5,0.3-1.2,0.6-2.1,0.9c-0.8,0.3-1.8,0.4-3,0.4c-1.2,0-2.3-0.2-3.3-0.6c-1-0.4-1.8-1-2.5-1.7c-0.7-0.7-1.2-1.6-1.6-2.6         c-0.4-1-0.6-2.1-0.6-3.3c0-1.1,0.2-2.1,0.6-3.1c0.4-0.9,0.9-1.8,1.6-2.5c0.7-0.7,1.5-1.3,2.4-1.7c0.9-0.4,1.9-0.6,3.1-0.6         c1.4,0,2.5,0.3,3.5,0.7c0.9,0.5,1.7,1.2,2.3,2c0.6,0.8,1,1.7,1.2,2.7c0.3,1,0.4,2.1,0.4,3.1v0.5c0,0,0,0.1-0.1,0.1h-11.1         c0,0.6,0.1,1.1,0.4,1.5c0.2,0.4,0.6,0.8,1,1.1c0.4,0.3,0.8,0.6,1.3,0.7c0.5,0.2,1,0.3,1.5,0.3c0.7,0,1.4-0.1,1.9-0.2         c0.5-0.1,1-0.3,1.4-0.5c0.4-0.2,0.7-0.4,0.9-0.6c0.2-0.2,0.4-0.3,0.5-0.4c0,0,0.1,0,0.1,0L149.7,25z M146.1,18.1         c0-0.4-0.1-0.8-0.2-1.1c-0.1-0.4-0.4-0.7-0.7-1c-0.3-0.3-0.7-0.6-1.1-0.8c-0.4-0.2-1-0.3-1.5-0.3c-0.6,0-1.2,0.1-1.6,0.3         c-0.5,0.2-0.9,0.5-1.2,0.8c-0.3,0.3-0.6,0.7-0.7,1c-0.2,0.4-0.3,0.8-0.3,1.1H146.1z"/>
						</g>
					</g>
					<g>
						<g>
							<path fill="#4E4E55" d="M166.2,15.3h-2.5c0,0-0.1,0-0.1-0.1v-2.9c0,0,0-0.1,0.1-0.1h2.5V7.9c0,0,0-0.1,0.1-0.1h3.6         c0,0,0.1,0,0.1,0.1v4.4h3.9c0,0,0.1,0,0.1,0.1v2.9c0,0,0,0.1-0.1,0.1H170v6.5c0,0.9,0.1,1.5,0.4,2c0.3,0.5,0.7,0.7,1.4,0.7         c0.6,0,1.1-0.1,1.4-0.3c0.3-0.2,0.6-0.3,0.9-0.6c0,0,0.1,0,0.1,0l1.5,2.2c0,0,0,0.1,0,0.1c-0.7,0.6-1.4,1-2.1,1.3         c-0.7,0.3-1.5,0.4-2.4,0.4c-0.9,0-1.7-0.1-2.3-0.4c-0.6-0.3-1.2-0.6-1.5-1.1c-0.4-0.5-0.7-1.1-0.8-1.8         c-0.2-0.7-0.3-1.4-0.3-2.3V15.3z"/>
						</g>
					</g>
					<g>
						<path fill="#4E4E55" d="M162.4,24.4h-3.3V8.7h3c0,0,0.1,0,0.1-0.1V6c0,0,0-0.1-0.1-0.1H152c0,0-0.1,0-0.1,0.1v2.6        c0,0,0,0.1,0.1,0.1h3.1v15.7h-2.9c0,0-0.1,0-0.1,0.1v2.6c0,0,0,0.1,0.1,0.1h2.9v0h4v0h3.3c0,0,0.1,0,0.1-0.1L162.4,24.4        C162.5,24.4,162.5,24.4,162.4,24.4z"/>
					</g>
					<g>
						<path fill="#4E4E55" d="M117.8,12.8c-0.3,0.3-1.2,1.4-1.8,2.9c0,0-0.1,0.1-0.1,0c-2.7-0.9-5.3,0.6-5.3,3.4v8        c0,0,0,0.1-0.1,0.1H107c0,0-0.1,0-0.1-0.1V12.3c0,0,0-0.1,0.1-0.1h3.4c0,0,0.1,0,0.1,0.1l0,1.2c2.8-2.3,5.6-1.7,7.3-0.9        C117.8,12.7,117.9,12.8,117.8,12.8z"/>
					</g>
				</g>
			</g>
		</g>
		<g>
			<path fill="#54A754" d="M192.6,9.9c-0.3-0.8-0.7-1.5-1.4-2.1c-0.6-0.6-1.4-1.1-2.4-1.4c-1-0.3-2.1-0.5-3.5-0.5h-6.9v21.3h3.1     v-8.3h3.8c1.4,0,2.5-0.2,3.5-0.5c1-0.3,1.8-0.8,2.4-1.4c0.6-0.6,1.1-1.3,1.4-2.1c0.3-0.8,0.4-1.6,0.4-2.5     C193,11.5,192.9,10.6,192.6,9.9z M189.8,12.4c0,1.2-0.3,2-0.9,2.6c-0.6,0.6-1.7,0.9-3.1,0.9h-4.2v-7h4.2c1.4,0,2.5,0.3,3.1,0.9     C189.5,10.3,189.8,11.2,189.8,12.4z"/>
			<path fill="#54A754" d="M204.2,12.4c-0.6-0.4-1.3-0.6-2.1-0.6c-0.8,0-1.6,0.1-2.2,0.4c-0.6,0.2-1.2,0.5-1.6,0.9     c-0.1,0.1-0.2,0.2-0.4,0.3v0c0-0.2,0-0.4,0-0.7l-0.1-0.8h-2.9l0.1,0.9c0,0.2,0,0.4,0,0.6c0,0.2,0,0.4,0,0.5v13.2h3v-7.8     c0-0.6,0.1-1.2,0.3-1.7c0.2-0.6,0.5-1.1,0.8-1.5c0.3-0.4,0.8-0.8,1.2-1c0.5-0.3,1.1-0.4,1.9-0.3c0,0,0.2,0,0.4,0.1l0.7,0.3     l0.4-0.7c0.2-0.3,0.4-0.6,0.7-0.9l0.6-0.7L204.2,12.4z"/>
			<path fill="#54A754" d="M219.4,16.5c-0.4-1-1-1.8-1.7-2.5c-0.7-0.7-1.5-1.3-2.5-1.7c-1.9-0.8-4.2-0.8-6.1,0     c-0.9,0.4-1.8,1-2.5,1.7c-0.7,0.7-1.3,1.6-1.7,2.5c-0.4,1-0.6,2-0.6,3.1c0,1.1,0.2,2.1,0.6,3.1c0.4,1,1,1.8,1.7,2.5     c0.7,0.7,1.5,1.3,2.5,1.7c0.9,0.4,2,0.6,3,0.6c1.1,0,2.1-0.2,3-0.6c0.9-0.4,1.8-1,2.5-1.7c0.7-0.7,1.3-1.6,1.7-2.5     c0.4-1,0.6-2,0.6-3.1C220,18.5,219.8,17.5,219.4,16.5z M216.9,19.6c0,0.7-0.1,1.4-0.4,2c-0.2,0.6-0.6,1.2-1,1.6     c-0.4,0.5-0.9,0.8-1.5,1.1c-1.1,0.5-2.6,0.5-3.7,0c-0.6-0.3-1.1-0.6-1.5-1.1c-0.4-0.5-0.8-1-1-1.6c-0.3-0.6-0.4-1.3-0.4-1.9     c0-0.7,0.1-1.4,0.4-2c0.2-0.6,0.6-1.2,1-1.6c0.4-0.4,0.9-0.8,1.5-1.1c0.6-0.3,1.2-0.4,1.9-0.4c0.6,0,1.3,0.1,1.8,0.4     c0.6,0.3,1.1,0.6,1.5,1.1c0.4,0.5,0.8,1,1,1.7C216.8,18.3,216.9,18.9,216.9,19.6z"/>
		</g>
	</g>
</g>
</svg>